<mxfile host="app.diagrams.net" modified="2024-07-02T17:10:16.058Z" agent="Mozilla/5.0 (Windows NT 10.0; Win64; x64) AppleWebKit/537.36 (KHTML, like Gecko) Chrome/126.0.0.0 Safari/537.36" etag="a5oZTLdEu2RNOBjv4rOf" version="24.6.4" type="github" pages="2">
  <diagram name="Diagram Konteks" id="epgfFb0skEptq95vjhe1">
    <mxGraphModel dx="934" dy="1352" grid="1" gridSize="10" guides="1" tooltips="1" connect="1" arrows="1" fold="1" page="1" pageScale="1" pageWidth="1169" pageHeight="827" math="0" shadow="0">
      <root>
        <mxCell id="0" />
        <mxCell id="1" parent="0" />
        <mxCell id="VuiifhyWefLbRoHjWOdV-1" value="Customer&amp;nbsp;&lt;div&gt;Followup&lt;/div&gt;&lt;div&gt;Database&lt;/div&gt;" style="shape=ellipse;html=1;dashed=0;whiteSpace=wrap;perimeter=ellipsePerimeter;" parent="1" vertex="1">
          <mxGeometry x="360" y="170" width="100" height="100" as="geometry" />
        </mxCell>
        <mxCell id="VuiifhyWefLbRoHjWOdV-5" value="Supervisor" style="html=1;dashed=0;whiteSpace=wrap;" parent="1" vertex="1">
          <mxGeometry x="730" y="50" width="120" height="60" as="geometry" />
        </mxCell>
        <mxCell id="VuiifhyWefLbRoHjWOdV-14" value="Admin" style="html=1;dashed=0;whiteSpace=wrap;" parent="1" vertex="1">
          <mxGeometry x="20" y="50" width="120" height="60" as="geometry" />
        </mxCell>
        <mxCell id="VuiifhyWefLbRoHjWOdV-15" value="Sales" style="html=1;dashed=0;whiteSpace=wrap;" parent="1" vertex="1">
          <mxGeometry x="90" y="340" width="120" height="60" as="geometry" />
        </mxCell>
        <mxCell id="VuiifhyWefLbRoHjWOdV-16" value="MRA" style="html=1;dashed=0;whiteSpace=wrap;" parent="1" vertex="1">
          <mxGeometry x="340" y="480" width="120" height="60" as="geometry" />
        </mxCell>
        <mxCell id="3bvG3QOUrX4tDnKTCZNF-1" value="BLA" style="html=1;dashed=0;whiteSpace=wrap;" vertex="1" parent="1">
          <mxGeometry x="720" y="330" width="120" height="60" as="geometry" />
        </mxCell>
        <mxCell id="3bvG3QOUrX4tDnKTCZNF-2" value="TUC" style="html=1;dashed=0;whiteSpace=wrap;" vertex="1" parent="1">
          <mxGeometry x="390" y="-110" width="120" height="60" as="geometry" />
        </mxCell>
        <mxCell id="3bvG3QOUrX4tDnKTCZNF-3" value="" style="endArrow=classic;html=1;rounded=0;exitX=0.5;exitY=1;exitDx=0;exitDy=0;entryX=0;entryY=0.5;entryDx=0;entryDy=0;" edge="1" parent="1" source="VuiifhyWefLbRoHjWOdV-14" target="VuiifhyWefLbRoHjWOdV-1">
          <mxGeometry width="50" height="50" relative="1" as="geometry">
            <mxPoint x="390" y="260" as="sourcePoint" />
            <mxPoint x="440" y="210" as="targetPoint" />
            <Array as="points">
              <mxPoint x="80" y="220" />
            </Array>
          </mxGeometry>
        </mxCell>
        <mxCell id="3bvG3QOUrX4tDnKTCZNF-4" value="Data Users, Data Followup, Data Service,&lt;div&gt;&amp;nbsp;Data Bidang Dan Data Supervisor&lt;/div&gt;" style="edgeLabel;html=1;align=center;verticalAlign=middle;resizable=0;points=[];" vertex="1" connectable="0" parent="3bvG3QOUrX4tDnKTCZNF-3">
          <mxGeometry x="-0.0545" y="2" relative="1" as="geometry">
            <mxPoint as="offset" />
          </mxGeometry>
        </mxCell>
        <mxCell id="3bvG3QOUrX4tDnKTCZNF-6" value="" style="endArrow=classic;html=1;rounded=0;exitX=1;exitY=0.5;exitDx=0;exitDy=0;entryX=0;entryY=1;entryDx=0;entryDy=0;" edge="1" parent="1">
          <mxGeometry width="50" height="50" relative="1" as="geometry">
            <mxPoint x="209" y="370" as="sourcePoint" />
            <mxPoint x="373.64466094067257" y="255.35533905932743" as="targetPoint" />
            <Array as="points">
              <mxPoint x="374" y="370" />
            </Array>
          </mxGeometry>
        </mxCell>
        <mxCell id="3bvG3QOUrX4tDnKTCZNF-7" value="Data Followup&lt;div&gt;Data Users&lt;/div&gt;" style="edgeLabel;html=1;align=center;verticalAlign=middle;resizable=0;points=[];" vertex="1" connectable="0" parent="3bvG3QOUrX4tDnKTCZNF-6">
          <mxGeometry x="-0.2267" y="-2" relative="1" as="geometry">
            <mxPoint as="offset" />
          </mxGeometry>
        </mxCell>
        <mxCell id="3bvG3QOUrX4tDnKTCZNF-8" value="" style="endArrow=classic;html=1;rounded=0;exitX=0.5;exitY=0;exitDx=0;exitDy=0;entryX=1;entryY=0.5;entryDx=0;entryDy=0;" edge="1" parent="1" source="VuiifhyWefLbRoHjWOdV-1" target="VuiifhyWefLbRoHjWOdV-14">
          <mxGeometry width="50" height="50" relative="1" as="geometry">
            <mxPoint x="410" y="160" as="sourcePoint" />
            <mxPoint x="460" y="110" as="targetPoint" />
            <Array as="points">
              <mxPoint x="410" y="80" />
            </Array>
          </mxGeometry>
        </mxCell>
        <mxCell id="3bvG3QOUrX4tDnKTCZNF-9" value="Laporan Followup,Rekap Followup,&amp;nbsp;&lt;div&gt;Laporan Service, Rekap Service&lt;/div&gt;" style="edgeLabel;html=1;align=center;verticalAlign=middle;resizable=0;points=[];" vertex="1" connectable="0" parent="3bvG3QOUrX4tDnKTCZNF-8">
          <mxGeometry x="0.4933" y="-1" relative="1" as="geometry">
            <mxPoint as="offset" />
          </mxGeometry>
        </mxCell>
        <mxCell id="3bvG3QOUrX4tDnKTCZNF-10" value="" style="endArrow=classic;html=1;rounded=0;exitX=1;exitY=0.5;exitDx=0;exitDy=0;entryX=0;entryY=0.5;entryDx=0;entryDy=0;" edge="1" parent="1" source="VuiifhyWefLbRoHjWOdV-1" target="VuiifhyWefLbRoHjWOdV-5">
          <mxGeometry width="50" height="50" relative="1" as="geometry">
            <mxPoint x="380" y="160" as="sourcePoint" />
            <mxPoint x="430" y="110" as="targetPoint" />
            <Array as="points">
              <mxPoint x="480" y="220" />
              <mxPoint x="480" y="80" />
            </Array>
          </mxGeometry>
        </mxCell>
        <mxCell id="3bvG3QOUrX4tDnKTCZNF-12" value="Laporan Followup Dan Rekap Followup" style="edgeLabel;html=1;align=center;verticalAlign=middle;resizable=0;points=[];" vertex="1" connectable="0" parent="3bvG3QOUrX4tDnKTCZNF-10">
          <mxGeometry x="0.1138" y="1" relative="1" as="geometry">
            <mxPoint as="offset" />
          </mxGeometry>
        </mxCell>
        <mxCell id="3bvG3QOUrX4tDnKTCZNF-13" value="" style="endArrow=classic;html=1;rounded=0;exitX=1;exitY=1;exitDx=0;exitDy=0;entryX=0;entryY=0.5;entryDx=0;entryDy=0;" edge="1" parent="1" source="VuiifhyWefLbRoHjWOdV-1" target="3bvG3QOUrX4tDnKTCZNF-1">
          <mxGeometry width="50" height="50" relative="1" as="geometry">
            <mxPoint x="590" y="390" as="sourcePoint" />
            <mxPoint x="700" y="360" as="targetPoint" />
            <Array as="points">
              <mxPoint x="445" y="360" />
            </Array>
          </mxGeometry>
        </mxCell>
        <mxCell id="3bvG3QOUrX4tDnKTCZNF-16" value="Laporan Service Dan Rekap Service" style="edgeLabel;html=1;align=center;verticalAlign=middle;resizable=0;points=[];" vertex="1" connectable="0" parent="3bvG3QOUrX4tDnKTCZNF-13">
          <mxGeometry x="0.2309" y="1" relative="1" as="geometry">
            <mxPoint as="offset" />
          </mxGeometry>
        </mxCell>
        <mxCell id="3bvG3QOUrX4tDnKTCZNF-14" value="" style="endArrow=classic;html=1;rounded=0;entryX=0.98;entryY=0.713;entryDx=0;entryDy=0;entryPerimeter=0;exitX=0.5;exitY=0;exitDx=0;exitDy=0;" edge="1" parent="1" source="3bvG3QOUrX4tDnKTCZNF-1" target="VuiifhyWefLbRoHjWOdV-1">
          <mxGeometry width="50" height="50" relative="1" as="geometry">
            <mxPoint x="700" y="320" as="sourcePoint" />
            <mxPoint x="550" y="240" as="targetPoint" />
            <Array as="points">
              <mxPoint x="780" y="241" />
            </Array>
          </mxGeometry>
        </mxCell>
        <mxCell id="3bvG3QOUrX4tDnKTCZNF-15" value="Data Service&lt;div&gt;Data Users&lt;/div&gt;" style="edgeLabel;html=1;align=center;verticalAlign=middle;resizable=0;points=[];" vertex="1" connectable="0" parent="3bvG3QOUrX4tDnKTCZNF-14">
          <mxGeometry x="0.1306" y="-2" relative="1" as="geometry">
            <mxPoint as="offset" />
          </mxGeometry>
        </mxCell>
        <mxCell id="3bvG3QOUrX4tDnKTCZNF-17" value="" style="endArrow=classic;html=1;rounded=0;exitX=0.586;exitY=-0.021;exitDx=0;exitDy=0;exitPerimeter=0;entryX=0.5;entryY=1;entryDx=0;entryDy=0;" edge="1" parent="1" source="VuiifhyWefLbRoHjWOdV-16" target="VuiifhyWefLbRoHjWOdV-1">
          <mxGeometry width="50" height="50" relative="1" as="geometry">
            <mxPoint x="420" y="460" as="sourcePoint" />
            <mxPoint x="470" y="410" as="targetPoint" />
          </mxGeometry>
        </mxCell>
        <mxCell id="3bvG3QOUrX4tDnKTCZNF-18" value="Data Service" style="edgeLabel;html=1;align=center;verticalAlign=middle;resizable=0;points=[];" vertex="1" connectable="0" parent="3bvG3QOUrX4tDnKTCZNF-17">
          <mxGeometry x="-0.4456" y="1" relative="1" as="geometry">
            <mxPoint as="offset" />
          </mxGeometry>
        </mxCell>
        <mxCell id="3bvG3QOUrX4tDnKTCZNF-19" value="" style="endArrow=classic;html=1;rounded=0;exitX=1;exitY=0;exitDx=0;exitDy=0;entryX=0.5;entryY=1;entryDx=0;entryDy=0;" edge="1" parent="1" source="VuiifhyWefLbRoHjWOdV-1" target="3bvG3QOUrX4tDnKTCZNF-2">
          <mxGeometry width="50" height="50" relative="1" as="geometry">
            <mxPoint x="610" y="190" as="sourcePoint" />
            <mxPoint x="660" y="140" as="targetPoint" />
          </mxGeometry>
        </mxCell>
        <mxCell id="3bvG3QOUrX4tDnKTCZNF-20" value="Data Followup" style="edgeLabel;html=1;align=center;verticalAlign=middle;resizable=0;points=[];" vertex="1" connectable="0" parent="3bvG3QOUrX4tDnKTCZNF-19">
          <mxGeometry x="0.398" relative="1" as="geometry">
            <mxPoint y="1" as="offset" />
          </mxGeometry>
        </mxCell>
        <mxCell id="ki20Z8s4vrW7yiZeNQ6K-3" value="a" style="text;html=1;align=center;verticalAlign=middle;whiteSpace=wrap;rounded=0;" vertex="1" parent="1">
          <mxGeometry y="50" width="60" height="30" as="geometry" />
        </mxCell>
        <mxCell id="ki20Z8s4vrW7yiZeNQ6K-4" value="b" style="text;html=1;align=center;verticalAlign=middle;whiteSpace=wrap;rounded=0;" vertex="1" parent="1">
          <mxGeometry x="70" y="340" width="60" height="30" as="geometry" />
        </mxCell>
        <mxCell id="ki20Z8s4vrW7yiZeNQ6K-5" value="c" style="text;html=1;align=center;verticalAlign=middle;whiteSpace=wrap;rounded=0;" vertex="1" parent="1">
          <mxGeometry x="710" y="50" width="60" height="30" as="geometry" />
        </mxCell>
        <mxCell id="ki20Z8s4vrW7yiZeNQ6K-8" value="d" style="text;html=1;align=center;verticalAlign=middle;whiteSpace=wrap;rounded=0;" vertex="1" parent="1">
          <mxGeometry x="700" y="330" width="60" height="30" as="geometry" />
        </mxCell>
        <mxCell id="ki20Z8s4vrW7yiZeNQ6K-9" value="e" style="text;html=1;align=center;verticalAlign=middle;whiteSpace=wrap;rounded=0;" vertex="1" parent="1">
          <mxGeometry x="320" y="480" width="60" height="30" as="geometry" />
        </mxCell>
        <mxCell id="ki20Z8s4vrW7yiZeNQ6K-10" value="f" style="text;html=1;align=center;verticalAlign=middle;whiteSpace=wrap;rounded=0;" vertex="1" parent="1">
          <mxGeometry x="370" y="-110" width="60" height="30" as="geometry" />
        </mxCell>
      </root>
    </mxGraphModel>
  </diagram>
  <diagram id="bucHdOgtdyLKO2n5NT9M" name="Page-2">
    <mxGraphModel dx="1963" dy="446" grid="1" gridSize="10" guides="1" tooltips="1" connect="1" arrows="1" fold="1" page="1" pageScale="1" pageWidth="1169" pageHeight="827" math="0" shadow="0">
      <root>
        <mxCell id="0" />
        <mxCell id="1" parent="0" />
        <mxCell id="wO4jeFMkarcU0C4ZVt6F-1" value="Admin" style="html=1;dashed=0;whiteSpace=wrap;fontSize=16;" parent="1" vertex="1">
          <mxGeometry x="430" y="150" width="120" height="60" as="geometry" />
        </mxCell>
        <mxCell id="kWxTAtephzZwehLaW-mJ-16" value="Sales" style="html=1;dashed=0;whiteSpace=wrap;fontSize=16;" parent="1" vertex="1">
          <mxGeometry x="-60" y="430" width="120" height="60" as="geometry" />
        </mxCell>
        <mxCell id="kWxTAtephzZwehLaW-mJ-17" value="MRA" style="html=1;dashed=0;whiteSpace=wrap;fontSize=16;" parent="1" vertex="1">
          <mxGeometry x="345" y="600" width="120" height="60" as="geometry" />
        </mxCell>
        <mxCell id="kWxTAtephzZwehLaW-mJ-18" value="Supervisor" style="html=1;dashed=0;whiteSpace=wrap;fontSize=16;" parent="1" vertex="1">
          <mxGeometry x="190" y="610" width="120" height="60" as="geometry" />
        </mxCell>
        <mxCell id="kWxTAtephzZwehLaW-mJ-28" value="1.P&lt;div style=&quot;font-size: 16px;&quot;&gt;users&lt;/div&gt;" style="shape=ellipse;html=1;dashed=0;whiteSpace=wrap;aspect=fixed;perimeter=ellipsePerimeter;fontSize=16;" parent="1" vertex="1">
          <mxGeometry x="150" y="340" width="80" height="80" as="geometry" />
        </mxCell>
        <mxCell id="bmZkXhHhfdS_KMOA7PLY-1" value="TUC" style="html=1;dashed=0;whiteSpace=wrap;fontSize=16;" vertex="1" parent="1">
          <mxGeometry x="630" y="570" width="120" height="60" as="geometry" />
        </mxCell>
        <mxCell id="PAaoC2mi8qCAiIPaxIjI-1" value="BLA" style="html=1;dashed=0;whiteSpace=wrap;fontSize=16;" vertex="1" parent="1">
          <mxGeometry x="500" y="610" width="120" height="60" as="geometry" />
        </mxCell>
        <mxCell id="PAaoC2mi8qCAiIPaxIjI-3" value="2.P&lt;div style=&quot;font-size: 16px;&quot;&gt;Bidang&lt;/div&gt;" style="shape=ellipse;html=1;dashed=0;whiteSpace=wrap;aspect=fixed;perimeter=ellipsePerimeter;fontSize=16;" vertex="1" parent="1">
          <mxGeometry x="300" y="340" width="80" height="80" as="geometry" />
        </mxCell>
        <mxCell id="PAaoC2mi8qCAiIPaxIjI-4" value="3.P&lt;div style=&quot;font-size: 16px;&quot;&gt;Supervisor&lt;/div&gt;" style="shape=ellipse;html=1;dashed=0;whiteSpace=wrap;aspect=fixed;perimeter=ellipsePerimeter;fontSize=16;" vertex="1" parent="1">
          <mxGeometry x="440" y="340" width="80" height="80" as="geometry" />
        </mxCell>
        <mxCell id="PAaoC2mi8qCAiIPaxIjI-5" value="4.P&lt;div style=&quot;font-size: 16px;&quot;&gt;Followup&lt;/div&gt;" style="shape=ellipse;html=1;dashed=0;whiteSpace=wrap;aspect=fixed;perimeter=ellipsePerimeter;fontSize=16;" vertex="1" parent="1">
          <mxGeometry x="584.5" y="340" width="80" height="80" as="geometry" />
        </mxCell>
        <mxCell id="PAaoC2mi8qCAiIPaxIjI-6" value="5.P&lt;div style=&quot;font-size: 16px;&quot;&gt;Service&lt;/div&gt;" style="shape=ellipse;html=1;dashed=0;whiteSpace=wrap;aspect=fixed;perimeter=ellipsePerimeter;fontSize=16;" vertex="1" parent="1">
          <mxGeometry x="720" y="340" width="80" height="80" as="geometry" />
        </mxCell>
        <mxCell id="PAaoC2mi8qCAiIPaxIjI-8" value="" style="endArrow=classic;html=1;rounded=0;exitX=0;exitY=0.5;exitDx=0;exitDy=0;entryX=0.5;entryY=0;entryDx=0;entryDy=0;" edge="1" parent="1" source="wO4jeFMkarcU0C4ZVt6F-1" target="kWxTAtephzZwehLaW-mJ-28">
          <mxGeometry width="50" height="50" relative="1" as="geometry">
            <mxPoint x="350" y="300" as="sourcePoint" />
            <mxPoint x="400" y="250" as="targetPoint" />
            <Array as="points">
              <mxPoint x="190" y="180" />
            </Array>
          </mxGeometry>
        </mxCell>
        <mxCell id="KHFkOiuXwLlKuGVH0VCN-2" value="Data Users" style="edgeLabel;html=1;align=center;verticalAlign=middle;resizable=0;points=[];" vertex="1" connectable="0" parent="PAaoC2mi8qCAiIPaxIjI-8">
          <mxGeometry x="0.08" y="-1" relative="1" as="geometry">
            <mxPoint as="offset" />
          </mxGeometry>
        </mxCell>
        <mxCell id="PAaoC2mi8qCAiIPaxIjI-9" value="" style="endArrow=classic;html=1;rounded=0;exitX=0;exitY=1;exitDx=0;exitDy=0;entryX=0.5;entryY=0;entryDx=0;entryDy=0;" edge="1" parent="1" source="wO4jeFMkarcU0C4ZVt6F-1" target="PAaoC2mi8qCAiIPaxIjI-3">
          <mxGeometry width="50" height="50" relative="1" as="geometry">
            <mxPoint x="500" y="340" as="sourcePoint" />
            <mxPoint x="550" y="290" as="targetPoint" />
            <Array as="points">
              <mxPoint x="340" y="210" />
            </Array>
          </mxGeometry>
        </mxCell>
        <mxCell id="KhvcZn7qx0jvtT2tmby4-1" value="Data Bidang" style="edgeLabel;html=1;align=center;verticalAlign=middle;resizable=0;points=[];" vertex="1" connectable="0" parent="PAaoC2mi8qCAiIPaxIjI-9">
          <mxGeometry x="-0.2879" y="2" relative="1" as="geometry">
            <mxPoint as="offset" />
          </mxGeometry>
        </mxCell>
        <mxCell id="PAaoC2mi8qCAiIPaxIjI-10" value="" style="endArrow=classic;html=1;rounded=0;exitX=0.417;exitY=1;exitDx=0;exitDy=0;exitPerimeter=0;entryX=0.5;entryY=0;entryDx=0;entryDy=0;" edge="1" parent="1" source="wO4jeFMkarcU0C4ZVt6F-1" target="PAaoC2mi8qCAiIPaxIjI-4">
          <mxGeometry width="50" height="50" relative="1" as="geometry">
            <mxPoint x="510" y="290" as="sourcePoint" />
            <mxPoint x="560" y="240" as="targetPoint" />
          </mxGeometry>
        </mxCell>
        <mxCell id="PAaoC2mi8qCAiIPaxIjI-11" value="" style="endArrow=classic;html=1;rounded=0;exitX=1;exitY=1;exitDx=0;exitDy=0;entryX=0.5;entryY=0;entryDx=0;entryDy=0;" edge="1" parent="1" source="wO4jeFMkarcU0C4ZVt6F-1" target="PAaoC2mi8qCAiIPaxIjI-5">
          <mxGeometry width="50" height="50" relative="1" as="geometry">
            <mxPoint x="890" y="230" as="sourcePoint" />
            <mxPoint x="940" y="180" as="targetPoint" />
            <Array as="points">
              <mxPoint x="625" y="210" />
            </Array>
          </mxGeometry>
        </mxCell>
        <mxCell id="PAaoC2mi8qCAiIPaxIjI-12" value="" style="endArrow=classic;html=1;rounded=0;exitX=1;exitY=0.5;exitDx=0;exitDy=0;entryX=0.5;entryY=0;entryDx=0;entryDy=0;" edge="1" parent="1" source="wO4jeFMkarcU0C4ZVt6F-1" target="PAaoC2mi8qCAiIPaxIjI-6">
          <mxGeometry width="50" height="50" relative="1" as="geometry">
            <mxPoint x="770" y="290" as="sourcePoint" />
            <mxPoint x="820" y="240" as="targetPoint" />
            <Array as="points">
              <mxPoint x="760" y="180" />
            </Array>
          </mxGeometry>
        </mxCell>
        <mxCell id="KHFkOiuXwLlKuGVH0VCN-1" value="tb_users" style="html=1;dashed=0;whiteSpace=wrap;shape=partialRectangle;right=0;left=0;" vertex="1" parent="1">
          <mxGeometry x="140" y="510" width="100" height="30" as="geometry" />
        </mxCell>
        <mxCell id="KHFkOiuXwLlKuGVH0VCN-3" value="" style="endArrow=classic;html=1;rounded=0;exitX=0;exitY=1;exitDx=0;exitDy=0;" edge="1" parent="1" source="kWxTAtephzZwehLaW-mJ-28">
          <mxGeometry width="50" height="50" relative="1" as="geometry">
            <mxPoint x="220" y="510" as="sourcePoint" />
            <mxPoint x="162" y="510" as="targetPoint" />
          </mxGeometry>
        </mxCell>
        <mxCell id="KHFkOiuXwLlKuGVH0VCN-8" value="Data Users" style="edgeLabel;html=1;align=center;verticalAlign=middle;resizable=0;points=[];" vertex="1" connectable="0" parent="KHFkOiuXwLlKuGVH0VCN-3">
          <mxGeometry x="-0.3174" y="1" relative="1" as="geometry">
            <mxPoint as="offset" />
          </mxGeometry>
        </mxCell>
        <mxCell id="KHFkOiuXwLlKuGVH0VCN-6" value="" style="endArrow=classic;html=1;rounded=0;exitX=0.75;exitY=0;exitDx=0;exitDy=0;entryX=1;entryY=1;entryDx=0;entryDy=0;" edge="1" parent="1" source="KHFkOiuXwLlKuGVH0VCN-1" target="kWxTAtephzZwehLaW-mJ-28">
          <mxGeometry width="50" height="50" relative="1" as="geometry">
            <mxPoint x="330" y="520" as="sourcePoint" />
            <mxPoint x="380" y="470" as="targetPoint" />
          </mxGeometry>
        </mxCell>
        <mxCell id="KHFkOiuXwLlKuGVH0VCN-11" value="Data Users" style="edgeLabel;html=1;align=center;verticalAlign=middle;resizable=0;points=[];" vertex="1" connectable="0" parent="KHFkOiuXwLlKuGVH0VCN-6">
          <mxGeometry x="-0.3121" relative="1" as="geometry">
            <mxPoint as="offset" />
          </mxGeometry>
        </mxCell>
        <mxCell id="KHFkOiuXwLlKuGVH0VCN-12" value="tb_bidang" style="html=1;dashed=0;whiteSpace=wrap;shape=partialRectangle;right=0;left=0;" vertex="1" parent="1">
          <mxGeometry x="300" y="510" width="100" height="30" as="geometry" />
        </mxCell>
        <mxCell id="KHFkOiuXwLlKuGVH0VCN-13" value="" style="endArrow=classic;html=1;rounded=0;exitX=0;exitY=1;exitDx=0;exitDy=0;entryX=0.143;entryY=0.044;entryDx=0;entryDy=0;entryPerimeter=0;" edge="1" parent="1" source="PAaoC2mi8qCAiIPaxIjI-3" target="KHFkOiuXwLlKuGVH0VCN-12">
          <mxGeometry width="50" height="50" relative="1" as="geometry">
            <mxPoint x="172" y="418" as="sourcePoint" />
            <mxPoint x="172" y="520" as="targetPoint" />
          </mxGeometry>
        </mxCell>
        <mxCell id="KHFkOiuXwLlKuGVH0VCN-14" value="Data bidang" style="edgeLabel;html=1;align=center;verticalAlign=middle;resizable=0;points=[];" vertex="1" connectable="0" parent="KHFkOiuXwLlKuGVH0VCN-13">
          <mxGeometry x="-0.3174" y="1" relative="1" as="geometry">
            <mxPoint as="offset" />
          </mxGeometry>
        </mxCell>
        <mxCell id="KHFkOiuXwLlKuGVH0VCN-15" value="" style="endArrow=classic;html=1;rounded=0;exitX=0.75;exitY=0;exitDx=0;exitDy=0;entryX=1;entryY=1;entryDx=0;entryDy=0;" edge="1" parent="1" source="KHFkOiuXwLlKuGVH0VCN-12">
          <mxGeometry width="50" height="50" relative="1" as="geometry">
            <mxPoint x="380" y="501.72" as="sourcePoint" />
            <mxPoint x="373.28427124746213" y="400.00427124746216" as="targetPoint" />
          </mxGeometry>
        </mxCell>
        <mxCell id="KHFkOiuXwLlKuGVH0VCN-16" value="Data bidang" style="edgeLabel;html=1;align=center;verticalAlign=middle;resizable=0;points=[];" vertex="1" connectable="0" parent="KHFkOiuXwLlKuGVH0VCN-15">
          <mxGeometry x="-0.3121" relative="1" as="geometry">
            <mxPoint as="offset" />
          </mxGeometry>
        </mxCell>
        <mxCell id="aKGOEBtIyafNQ6vPUZhU-1" value="tb_supervisor" style="html=1;dashed=0;whiteSpace=wrap;shape=partialRectangle;right=0;left=0;" vertex="1" parent="1">
          <mxGeometry x="440" y="510" width="100" height="30" as="geometry" />
        </mxCell>
        <mxCell id="aKGOEBtIyafNQ6vPUZhU-3" value="" style="endArrow=classic;html=1;rounded=0;entryX=0.177;entryY=0.067;entryDx=0;entryDy=0;entryPerimeter=0;" edge="1" parent="1" target="aKGOEBtIyafNQ6vPUZhU-1">
          <mxGeometry width="50" height="50" relative="1" as="geometry">
            <mxPoint x="458" y="410" as="sourcePoint" />
            <mxPoint x="460" y="500" as="targetPoint" />
          </mxGeometry>
        </mxCell>
        <mxCell id="aKGOEBtIyafNQ6vPUZhU-4" value="Data supervisor" style="edgeLabel;html=1;align=center;verticalAlign=middle;resizable=0;points=[];" vertex="1" connectable="0" parent="aKGOEBtIyafNQ6vPUZhU-3">
          <mxGeometry x="-0.3174" y="1" relative="1" as="geometry">
            <mxPoint as="offset" />
          </mxGeometry>
        </mxCell>
      </root>
    </mxGraphModel>
  </diagram>
</mxfile>
